<svg xmlns="http://www.w3.org/2000/svg" version="1.1" xmlns:xlink="http://www.w3.org/1999/xlink" xmlns:svgjs="http://svgjs.dev/svgjs" width="360" height="800" preserveAspectRatio="none" viewBox="0 0 360 800"><g mask="url(&quot;#SvgjsMask2263&quot;)" fill="none"><rect width="360" height="800" x="0" y="0" fill="url(&quot;#SvgjsLinearGradient2264&quot;)"></rect><path d="M21 800L821 0L864.5 0L64.5 800z" fill="url(&quot;#SvgjsLinearGradient2265&quot;)"></path><path d="M124.80000000000001 800L924.8 0L1053.8 0L253.8 800z" fill="url(&quot;#SvgjsLinearGradient2265&quot;)"></path><path d="M341 800L-459 0L-600 0L200 800z" fill="url(&quot;#SvgjsLinearGradient2266&quot;)"></path><path d="M227.2 800L-572.8 0L-746.8 0L53.19999999999999 800z" fill="url(&quot;#SvgjsLinearGradient2266&quot;)"></path><path d="M49.60911163020444 800L360 489.60911163020444L360 800z" fill="url(&quot;#SvgjsLinearGradient2265&quot;)"></path><path d="M0 800L310.39088836979556 800L 0 489.60911163020444z" fill="url(&quot;#SvgjsLinearGradient2266&quot;)"></path></g><defs><mask id="SvgjsMask2263"><rect width="360" height="800" fill="#ffffff"></rect></mask><linearGradient x1="130.56%" y1="86.25%" x2="-30.56%" y2="13.75%" gradientUnits="userSpaceOnUse" id="SvgjsLinearGradient2264"><stop stop-color="rgba(21, 59, 98, 1)" offset="0"></stop><stop stop-color="rgba(217, 0, 116, 1)" offset="0.95"></stop></linearGradient><linearGradient x1="0%" y1="100%" x2="100%" y2="0%" id="SvgjsLinearGradient2265"><stop stop-color="rgba(50, 50, 50, 0.47)" offset="0"></stop><stop stop-opacity="0" stop-color="rgba(50, 50, 50, 0.47)" offset="0.66"></stop></linearGradient><linearGradient x1="100%" y1="100%" x2="0%" y2="0%" id="SvgjsLinearGradient2266"><stop stop-color="rgba(50, 50, 50, 0.47)" offset="0"></stop><stop stop-opacity="0" stop-color="rgba(50, 50, 50, 0.47)" offset="0.66"></stop></linearGradient></defs></svg>