<svg xmlns="http://www.w3.org/2000/svg" version="1.1" xmlns:xlink="http://www.w3.org/1999/xlink" xmlns:svgjs="http://svgjs.dev/svgjs" width="360" height="1200" preserveAspectRatio="none" viewBox="0 0 360 1200"><g mask="url(&quot;#SvgjsMask2311&quot;)" fill="none"><rect width="360" height="1200" x="0" y="0" fill="url(&quot;#SvgjsLinearGradient2312&quot;)"></rect><path d="M13 1200L1213 0L1292.5 0L92.5 1200z" fill="url(&quot;#SvgjsLinearGradient2313&quot;)"></path><path d="M86.2 1200L1286.2 0L1346.2 0L146.2 1200z" fill="url(&quot;#SvgjsLinearGradient2313&quot;)"></path><path d="M159.4 1200L1359.4 0L1375.9 0L175.9 1200z" fill="url(&quot;#SvgjsLinearGradient2313&quot;)"></path><path d="M352 1200L-848 0L-929 0L271 1200z" fill="url(&quot;#SvgjsLinearGradient2314&quot;)"></path><path d="M273.8 1200L-926.2 0L-1041.7 0L158.3 1200z" fill="url(&quot;#SvgjsLinearGradient2314&quot;)"></path><path d="M200.6 1200L-999.4 0L-1111.9 0L88.1 1200z" fill="url(&quot;#SvgjsLinearGradient2314&quot;)"></path><path d="M161.5728818039803 1200L360 1001.5728818039803L360 1200z" fill="url(&quot;#SvgjsLinearGradient2313&quot;)"></path><path d="M0 1200L198.4271181960197 1200L 0 1001.5728818039803z" fill="url(&quot;#SvgjsLinearGradient2314&quot;)"></path></g><defs><mask id="SvgjsMask2311"><rect width="360" height="1200" fill="#ffffff"></rect></mask><linearGradient x1="158.33%" y1="82.5%" x2="-58.33%" y2="17.5%" gradientUnits="userSpaceOnUse" id="SvgjsLinearGradient2312"><stop stop-color="rgba(21, 59, 98, 1)" offset="0"></stop><stop stop-color="rgba(217, 0, 116, 1)" offset="0.95"></stop></linearGradient><linearGradient x1="0%" y1="100%" x2="100%" y2="0%" id="SvgjsLinearGradient2313"><stop stop-color="rgba(50, 50, 50, 0.47)" offset="0"></stop><stop stop-opacity="0" stop-color="rgba(50, 50, 50, 0.47)" offset="0.66"></stop></linearGradient><linearGradient x1="100%" y1="100%" x2="0%" y2="0%" id="SvgjsLinearGradient2314"><stop stop-color="rgba(50, 50, 50, 0.47)" offset="0"></stop><stop stop-opacity="0" stop-color="rgba(50, 50, 50, 0.47)" offset="0.66"></stop></linearGradient></defs></svg>