<svg xmlns="http://www.w3.org/2000/svg" version="1.1" xmlns:xlink="http://www.w3.org/1999/xlink" xmlns:svgjs="http://svgjs.dev/svgjs" width="1920" height="1080" preserveAspectRatio="none" viewBox="0 0 1920 1080"><g mask="url(&quot;#SvgjsMask4826&quot;)" fill="none"><rect width="1920" height="1080" x="0" y="0" fill="url(&quot;#SvgjsLinearGradient4827&quot;)"></rect><path d="M97 1080L1177 0L1504 0L424 1080z" fill="url(&quot;#SvgjsLinearGradient4828&quot;)"></path><path d="M650.6 1080L1730.6 0L2053.1 0L973.1 1080z" fill="url(&quot;#SvgjsLinearGradient4828&quot;)"></path><path d="M1899 1080L819 0L673.5 0L1753.5 1080z" fill="url(&quot;#SvgjsLinearGradient4829&quot;)"></path><path d="M1247.4 1080L167.4000000000001 0L-650.0999999999999 0L429.9000000000001 1080z" fill="url(&quot;#SvgjsLinearGradient4829&quot;)"></path><path d="M918.8557700886097 1080L1920 78.85577008860969L1920 1080z" fill="url(&quot;#SvgjsLinearGradient4828&quot;)"></path><path d="M0 1080L1001.1442299113903 1080L 0 78.85577008860969z" fill="url(&quot;#SvgjsLinearGradient4829&quot;)"></path></g><defs><mask id="SvgjsMask4826"><rect width="1920" height="1080" fill="#ffffff"></rect></mask><linearGradient x1="89.06%" y1="119.44%" x2="10.94%" y2="-19.44%" gradientUnits="userSpaceOnUse" id="SvgjsLinearGradient4827"><stop stop-color="rgba(27, 141, 203, 1)" offset="0.05"></stop><stop stop-color="rgba(145, 13, 74, 1)" offset="0.85"></stop></linearGradient><linearGradient x1="0%" y1="100%" x2="100%" y2="0%" id="SvgjsLinearGradient4828"><stop stop-color="rgba(44, 67, 76, 0.27)" offset="0"></stop><stop stop-opacity="0" stop-color="rgba(44, 67, 76, 0.27)" offset="0.66"></stop></linearGradient><linearGradient x1="100%" y1="100%" x2="0%" y2="0%" id="SvgjsLinearGradient4829"><stop stop-color="rgba(44, 67, 76, 0.27)" offset="0"></stop><stop stop-opacity="0" stop-color="rgba(44, 67, 76, 0.27)" offset="0.66"></stop></linearGradient></defs></svg>